<?xml version="1.0" encoding="UTF-8" standalone="no"?>
<svg width="24px" height="32px" viewBox="0 0 24 32" version="1.1" xmlns="http://www.w3.org/2000/svg" xmlns:xlink="http://www.w3.org/1999/xlink">
    <!-- Generator: sketchtool 3.8.3 (29802) - http://www.bohemiancoding.com/sketch -->
    <title>8CBCE8EC-4673-43E2-9763-B070D3BCBD67</title>
    <desc>Created with sketchtool.</desc>
    <defs></defs>
    <g id="Page-1" stroke="none" stroke-width="1" fill="none" fill-rule="evenodd">
        <g id="CT_Homepage" transform="translate(-1216.000000, -976.000000)" fill="#FFFFFF">
            <g id="carousel" transform="translate(-964.000000, 712.000000)">
                <g id="right" transform="translate(2136.000000, 0.000000)">
                    <path d="M45.0588855,292.096716 L45.0588855,292.096716 L45.0588855,292.096716 L64.3961238,278.927823 C63.8819334,279.277993 63.8815786,280.721594 64.3961238,281.072005 L45.0588855,267.903112 C45.8941251,268.471921 47.989652,267.346896 47.989652,266.357057 L47.989652,293.642772 C47.989652,292.653905 45.894565,291.527609 45.0588855,292.096716 L45.0588855,292.096716 Z M47.2974942,295.414441 C45.4763384,296.65467 44,295.859976 44,293.642772 L44,266.357057 C44,264.138362 45.4779367,263.346247 47.2974942,264.585388 L66.6347325,277.754281 C68.4558882,278.99451 68.45429,281.006407 66.6347325,282.245548 L47.2974942,295.414441 L47.2974942,295.414441 Z" id="icon_arrow_right"></path>
                </g>
            </g>
        </g>
    </g>
</svg>